Coordinates
version=1
nRows=24
nColumns=24
inDegrees=yes

Units are S.I. units (second, meters, Newtons, ...)
Angles are in degrees.

endheader
time	pelvis_tilt	pelvis_list	pelvis_rotation	pelvis_tx	pelvis_ty	pelvis_tz	hip_flexion_r	hip_adduction_r	hip_rotation_r	knee_angle_r	ankle_angle_r	subtalar_angle_r	mtp_angle_r	hip_flexion_l	hip_adduction_l	hip_rotation_l	knee_angle_l	ankle_angle_l	subtalar_angle_l	mtp_angle_l	lumbar_extension	lumbar_bending	lumbar_rotation
      5.26000000	     48.60029168	      1.51346035	     -3.15030407	      0.75856356	      0.96301530	     -0.27605160	     18.39238649	    -14.00991643	      8.47790759	    -62.88525094	      7.12942511	     15.70349100	    -32.89312729	     13.80247426	    -10.03059577	      3.70224472	    -72.02063321	      4.09780480	     11.15906856	    -62.46971835	      0.00000000	      0.00000000	      0.00000000
      5.27000000	     48.61210821	      1.51402010	     -3.15280672	      0.75856350	      0.96304786	     -0.27602533	     18.37064361	    -14.00769008	      8.48717363	    -62.89632018	      7.20592194	     15.74302041	    -32.66346588	     13.76814513	     -9.98779066	      3.58594462	    -71.65370496	      4.10469579	     11.23998848	    -62.34198085	      0.00000000	      0.00000000	      0.00000000
      5.28000000	     48.62730314	      1.51519447	     -3.15899659	      0.75856448	      0.96308103	     -0.27601419	     18.35056027	    -14.00917442	      8.49312027	    -62.90196777	      7.26084435	     15.77438096	    -32.45919434	     13.72794839	     -9.93907435	      3.43195663	    -71.22065408	      4.10942668	     11.31099372	    -62.18956826	      0.00000000	      0.00000000	      0.00000000
      5.29000000	     48.64454829	      1.51613392	     -3.16737675	      0.75856016	      0.96311690	     -0.27601799	     18.32979667	    -14.01284763	      8.49513483	    -62.90144778	      7.28912844	     15.79365846	    -32.30109253	     13.68460825	     -9.88346553	      3.23591955	    -70.72789226	      4.11093485	     11.36169619	    -62.01045701	      0.00000000	      0.00000000	      0.00000000
      5.30000000	     48.66263559	      1.51586578	     -3.17536686	      0.75855338	      0.96316369	     -0.27601951	     18.30612732	    -14.01614121	      8.49316081	    -62.89514312	      7.29135912	     15.79942262	    -32.20111365	     13.63991668	     -9.81946502	      2.99537210	    -70.18020347	      4.10698191	     11.38852134	    -61.80315683	      0.00000000	      0.00000000	      0.00000000
      5.31000000	     48.68102020	      1.51398646	     -3.18113204	      0.75854797	      0.96322273	     -0.27599822	     18.27842032	    -14.01705629	      8.48793823	    -62.88410908	      7.27275533	     15.79267312	    -32.16128920	     13.59431518	     -9.74655900	      2.71272513	    -69.57968000	      4.09432452	     11.39568712	    -61.56700850	      0.00000000	      0.00000000	      0.00000000
      5.32000000	     48.69990830	      1.51146071	     -3.18516137	      0.75854304	      0.96329082	     -0.27595930	     18.24669790	    -14.01533943	      8.48109913	    -62.86979140	      7.24132806	     15.77628298	    -32.17439989	     13.54717329	     -9.66640795	      2.39653054	    -68.92583220	      4.06940289	     11.39403773	    -61.30232265	      0.00000000	      0.00000000	      0.00000000
      5.33000000	     48.71997138	      1.50991222	     -3.18988273	      0.75853667	      0.96336499	     -0.27592760	     18.21169565	    -14.01212272	      8.47461653	    -62.85376789	      7.20575232	     15.75418169	    -32.22611018	     13.49733412	     -9.58160467	      2.05899519	    -68.21739155	      4.02941473	     11.39795471	    -61.01037926	      0.00000000	      0.00000000	      0.00000000
      5.34000000	     48.74189786	      1.50958923	     -3.19757429	      0.75853047	      0.96344086	     -0.27590659	     18.17430378	    -14.00859457	      8.46985381	    -62.83748621	      7.17351202	     15.73048561	    -32.29803898	     13.44364697	     -9.49285819	      1.71090460	    -67.45498248	      3.97344282	     11.42129460	    -60.69329143	      0.00000000	      0.00000000	      0.00000000
      5.35000000	     48.76608903	      1.50910571	     -3.20893020	      0.75852717	      0.96351419	     -0.27588127	     18.13503219	    -14.00513101	      8.46694676	    -62.82210399	      7.14969868	     15.70872048	    -32.37114768	     13.38548103	     -9.39842990	      1.35808748	    -66.64295754	      3.90321816	     11.47373162	    -60.35375424	      0.00000000	      0.00000000	      0.00000000
      5.36000000	     48.79265931	      1.50711537	     -3.22324035	      0.75852625	      0.96358389	     -0.27585006	     18.09373032	    -14.00143589	      8.46491365	    -62.80845018	      7.13654466	     15.69127588	    -32.42885974	     13.32309503	     -9.29623953	      1.00142355	    -65.78927866	      3.82317821	     11.55874367	    -59.99477066	      0.00000000	      0.00000000	      0.00000000
      5.37000000	     48.82171308	      1.50347413	     -3.23920974	      0.75852396	      0.96365336	     -0.27582140	     18.04978993	    -13.99706753	      8.46230406	    -62.79706507	      7.13358924	     15.67920513	    -32.45944461	     13.25769030	     -9.18578735	      0.63911952	    -64.90362935	      3.73970883	     11.67372531	    -59.61946756	      0.00000000	      0.00000000	      0.00000000
      5.38000000	     48.85370448	      1.49913180	     -3.25568038	      0.75851829	      0.96373125	     -0.27579605	     18.00263556	    -13.99176520	      8.45803080	    -62.78829492	      7.13832890	     15.67238712	    -32.45736862	     13.19121987	     -9.06846016	      0.26948495	    -63.99479961	      3.65970712	     11.81186237	    -59.23102641	      0.00000000	      0.00000000	      0.00000000
      5.39000000	     48.88919992	      1.49515285	     -3.27193011	      0.75851053	      0.96382146	     -0.27576673	     17.95214859	    -13.98550856	      8.45206018	    -62.78232858	      7.14714273	     15.66995162	    -32.42350207	     13.12568725	     -8.94635307	     -0.10706889	    -63.06886922	      3.58881921	     11.96487295	    -58.83268750	      0.00000000	      0.00000000	      0.00000000
      5.40000000	     48.92806213	      1.49188633	     -3.28771398	      0.75850290	      0.96391441	     -0.27573025	     17.89883964	    -13.97842276	      8.44562810	    -62.77906243	      7.15622891	     15.67080366	    -32.36425043	     13.06212607	     -8.82071032	     -0.48721098	    -62.12910270	      3.52994425	     12.12554335	    -58.42775972	      0.00000000	      0.00000000	      0.00000000
      5.41000000	     48.96918305	      1.48896705	     -3.30341993	      0.75849787	      0.96400019	     -0.27569231	     17.84370110	    -13.97078365	      8.44085866	    -62.77788320	      7.16234436	     15.67405844	    -32.28983708	     13.00038799	     -8.69121906	     -0.86495009	    -61.17706784	      3.48263976	     12.28920632	    -58.01951426	      0.00000000	      0.00000000	      0.00000000
      5.42000000	     49.01104876	      1.48582942	     -3.32007220	      0.75849583	      0.96407873	     -0.27565946	     17.78789732	    -13.96311977	      8.43991798	    -62.77751161	      7.16326354	     15.67922980	    -32.21208329	     12.93984025	     -8.55632504	     -1.23294972	    -60.21414497	      3.44368303	     12.45389847	    -57.61087693	      0.00000000	      0.00000000	      0.00000000
      5.43000000	     49.05260783	      1.48234597	     -3.33890821	      0.75849534	      0.96415453	     -0.27563391	     17.73250163	    -13.95606436	      8.44404265	    -62.77602287	      7.15795695	     15.68613242	    -32.14209133	     12.88023577	     -8.41408262	     -1.58445010	    -59.24288250	      3.40853155	     12.61953901	    -57.20398287	      0.00000000	      0.00000000	      0.00000000
      5.44000000	     49.09380187	      1.47901516	     -3.36075764	      0.75849753	      0.96423479	     -0.27561258	     17.67813746	    -13.95000803	      8.45299361	    -62.77130639	      7.14649208	     15.69461262	    -32.08823869	     12.82234439	     -8.26296379	     -1.91490878	    -58.26773175	      3.37311996	     12.78673655	    -56.79975697	      0.00000000	      0.00000000	      0.00000000
      5.45000000	     49.13525260	      1.47646442	     -3.38564046	      0.75850066	      0.96432712	     -0.27559122	     17.62450649	    -13.94507523	      8.46535472	    -62.76199776	      7.12965349	     15.70434947	    -32.05483287	     12.76799182	     -8.10256521	     -2.22247265	    -57.29489796	      3.33539899	     12.95578428	    -56.39770652	      0.00000000	      0.00000000	      0.00000000
      5.46000000	     49.17766144	      1.47484230	     -3.41270974	      0.75849766	      0.96443046	     -0.27557069	     17.57051215	    -13.94128717	      8.47932302	    -62.74810078	      7.10838464	     15.71494321	    -32.04164876	     12.71935474	     -7.93399924	     -2.50721547	    -56.33159260	      3.29613464	     13.12621569	    -55.99608255	      0.00000000	      0.00000000	      0.00000000
      5.47000000	     49.22154088	      1.47367313	     -3.44043348	      0.75848970	      0.96453411	     -0.27555559	     17.51525116	    -13.93838014	      8.49327385	    -62.73067416	      7.08327260	     15.72625343	    -32.04438063	     12.67782899	     -7.75948139	     -2.76992417	    -55.38529066	      3.25871767	     13.29696105	    -55.59244916	      0.00000000	      0.00000000	      0.00000000
      5.48000000	     49.26686128	      1.47205788	     -3.46702962	      0.75848590	      0.96463003	     -0.27554634	     17.45883898	    -13.93572544	      8.50609410	    -62.71110835	      7.05431103	     15.73869070	    -32.05585376	     12.64314737	     -7.58151470	     -3.01103345	    -54.46324610	      3.22809529	     13.46680614	    -55.18454522	      0.00000000	      0.00000000	      0.00000000
      5.49000000	     49.31262514	      1.46904402	     -3.49116371	      0.75848442	      0.96471779	     -0.27553430	     17.40218808	    -13.93257940	      8.51738801	    -62.69064684	      7.02113178	     15.75316256	    -32.06770881	     12.61355657	     -7.40220038	     -3.23004365	    -53.57199542	      3.20921061	     13.63478963	    -54.77119453	      0.00000000	      0.00000000	      0.00000000
